<mxfile host="app.diagrams.net" agent="Mozilla/5.0 (Windows NT 10.0; Win64; x64) AppleWebKit/537.36 (KHTML, like Gecko) Chrome/130.0.0.0 Safari/537.36" version="24.8.3">
  <diagram name="Page-1" id="qHXF0k9RNBD65LU9VVgD">
    <mxGraphModel dx="1034" dy="493" grid="1" gridSize="10" guides="1" tooltips="1" connect="1" arrows="1" fold="1" page="1" pageScale="1" pageWidth="850" pageHeight="1100" math="0" shadow="0">
      <root>
        <mxCell id="0" />
        <mxCell id="1" parent="0" />
        <mxCell id="gctJz2o3lcmDMn_5Ir7i-1" value="Start" style="rounded=1;arcSize=40;strokeWidth=2" vertex="1" parent="1">
          <mxGeometry x="212" y="20" width="65" height="49" as="geometry" />
        </mxCell>
        <mxCell id="gctJz2o3lcmDMn_5Ir7i-2" value="Initialize Serial" style="rounded=1;arcSize=40;strokeWidth=2" vertex="1" parent="1">
          <mxGeometry x="176" y="119" width="138" height="49" as="geometry" />
        </mxCell>
        <mxCell id="gctJz2o3lcmDMn_5Ir7i-3" value="Create WiFiManager Object" style="rounded=1;arcSize=40;strokeWidth=2" vertex="1" parent="1">
          <mxGeometry x="131" y="217" width="227" height="49" as="geometry" />
        </mxCell>
        <mxCell id="gctJz2o3lcmDMn_5Ir7i-4" value="Print Start Config Portal" style="rounded=1;arcSize=40;strokeWidth=2" vertex="1" parent="1">
          <mxGeometry x="144" y="316" width="201" height="49" as="geometry" />
        </mxCell>
        <mxCell id="gctJz2o3lcmDMn_5Ir7i-5" value="Start Config Portal" style="rounded=1;arcSize=40;strokeWidth=2" vertex="1" parent="1">
          <mxGeometry x="164" y="415" width="163" height="49" as="geometry" />
        </mxCell>
        <mxCell id="gctJz2o3lcmDMn_5Ir7i-6" value="Check WiFi Status" style="rhombus;strokeWidth=2;whiteSpace=wrap;" vertex="1" parent="1">
          <mxGeometry x="157" y="513" width="176" height="176" as="geometry" />
        </mxCell>
        <mxCell id="gctJz2o3lcmDMn_5Ir7i-7" value="Print Connected Message" style="rounded=1;arcSize=40;strokeWidth=2" vertex="1" parent="1">
          <mxGeometry x="20" y="762" width="208" height="49" as="geometry" />
        </mxCell>
        <mxCell id="gctJz2o3lcmDMn_5Ir7i-8" value="Print Failed Message" style="rounded=1;arcSize=40;strokeWidth=2" vertex="1" parent="1">
          <mxGeometry x="278" y="762" width="176" height="49" as="geometry" />
        </mxCell>
        <mxCell id="gctJz2o3lcmDMn_5Ir7i-9" value="End" style="rounded=1;arcSize=40;strokeWidth=2" vertex="1" parent="1">
          <mxGeometry x="217" y="861" width="56" height="49" as="geometry" />
        </mxCell>
        <mxCell id="gctJz2o3lcmDMn_5Ir7i-10" value="" style="curved=1;startArrow=none;endArrow=block;exitX=0.51;exitY=0.99;entryX=0.5;entryY=-0.01;rounded=0;" edge="1" parent="1" source="gctJz2o3lcmDMn_5Ir7i-1" target="gctJz2o3lcmDMn_5Ir7i-2">
          <mxGeometry relative="1" as="geometry">
            <Array as="points" />
          </mxGeometry>
        </mxCell>
        <mxCell id="gctJz2o3lcmDMn_5Ir7i-11" value="" style="curved=1;startArrow=none;endArrow=block;exitX=0.5;exitY=0.99;entryX=0.5;entryY=0.01;rounded=0;" edge="1" parent="1" source="gctJz2o3lcmDMn_5Ir7i-2" target="gctJz2o3lcmDMn_5Ir7i-3">
          <mxGeometry relative="1" as="geometry">
            <Array as="points" />
          </mxGeometry>
        </mxCell>
        <mxCell id="gctJz2o3lcmDMn_5Ir7i-12" value="" style="curved=1;startArrow=none;endArrow=block;exitX=0.5;exitY=1;entryX=0.5;entryY=0;rounded=0;" edge="1" parent="1" source="gctJz2o3lcmDMn_5Ir7i-3" target="gctJz2o3lcmDMn_5Ir7i-4">
          <mxGeometry relative="1" as="geometry">
            <Array as="points" />
          </mxGeometry>
        </mxCell>
        <mxCell id="gctJz2o3lcmDMn_5Ir7i-13" value="" style="curved=1;startArrow=none;endArrow=block;exitX=0.5;exitY=0.99;entryX=0.5;entryY=-0.01;rounded=0;" edge="1" parent="1" source="gctJz2o3lcmDMn_5Ir7i-4" target="gctJz2o3lcmDMn_5Ir7i-5">
          <mxGeometry relative="1" as="geometry">
            <Array as="points" />
          </mxGeometry>
        </mxCell>
        <mxCell id="gctJz2o3lcmDMn_5Ir7i-14" value="" style="curved=1;startArrow=none;endArrow=block;exitX=0.5;exitY=0.99;entryX=0.5;entryY=0;rounded=0;" edge="1" parent="1" source="gctJz2o3lcmDMn_5Ir7i-5" target="gctJz2o3lcmDMn_5Ir7i-6">
          <mxGeometry relative="1" as="geometry">
            <Array as="points" />
          </mxGeometry>
        </mxCell>
        <mxCell id="gctJz2o3lcmDMn_5Ir7i-15" value="Connected" style="curved=1;startArrow=none;endArrow=block;exitX=0.01;exitY=1;entryX=0.5;entryY=0.01;rounded=0;" edge="1" parent="1" source="gctJz2o3lcmDMn_5Ir7i-6" target="gctJz2o3lcmDMn_5Ir7i-7">
          <mxGeometry relative="1" as="geometry">
            <Array as="points">
              <mxPoint x="124" y="726" />
            </Array>
          </mxGeometry>
        </mxCell>
        <mxCell id="gctJz2o3lcmDMn_5Ir7i-16" value="Else" style="curved=1;startArrow=none;endArrow=block;exitX=0.99;exitY=1;entryX=0.5;entryY=0.01;rounded=0;" edge="1" parent="1" source="gctJz2o3lcmDMn_5Ir7i-6" target="gctJz2o3lcmDMn_5Ir7i-8">
          <mxGeometry relative="1" as="geometry">
            <Array as="points">
              <mxPoint x="366" y="726" />
            </Array>
          </mxGeometry>
        </mxCell>
        <mxCell id="gctJz2o3lcmDMn_5Ir7i-17" value="" style="curved=1;startArrow=none;endArrow=block;exitX=0.5;exitY=1;entryX=0;entryY=0.27;rounded=0;" edge="1" parent="1" source="gctJz2o3lcmDMn_5Ir7i-7" target="gctJz2o3lcmDMn_5Ir7i-9">
          <mxGeometry relative="1" as="geometry">
            <Array as="points">
              <mxPoint x="124" y="836" />
            </Array>
          </mxGeometry>
        </mxCell>
        <mxCell id="gctJz2o3lcmDMn_5Ir7i-18" value="" style="curved=1;startArrow=none;endArrow=block;exitX=0.5;exitY=1;entryX=1;entryY=0.27;rounded=0;" edge="1" parent="1" source="gctJz2o3lcmDMn_5Ir7i-8" target="gctJz2o3lcmDMn_5Ir7i-9">
          <mxGeometry relative="1" as="geometry">
            <Array as="points">
              <mxPoint x="366" y="836" />
            </Array>
          </mxGeometry>
        </mxCell>
      </root>
    </mxGraphModel>
  </diagram>
</mxfile>
